solid OBJECT
  facet normal -0 -1 0
    outer loop
      vertex 0 0 0
      vertex 0.10000000149011612 0 0
      vertex 0.10000000149011612 0 0.10000000149011612
    endloop
  endfacet
  facet normal 0 -1 0
    outer loop
      vertex 0 0 0
      vertex 0.10000000149011612 0 0.10000000149011612
      vertex 0 0 0.10000000149011612
    endloop
  endfacet
  facet normal 1 -0 0
    outer loop
      vertex 0.10000000149011612 0 0
      vertex 0.10000000149011612 0.10000000149011612 0
      vertex 0.10000000149011612 0.10000000149011612 0.10000000149011612
    endloop
  endfacet
  facet normal 1 -0 0
    outer loop
      vertex 0.10000000149011612 0 0
      vertex 0.10000000149011612 0.10000000149011612 0.10000000149011612
      vertex 0.10000000149011612 0 0.10000000149011612
    endloop
  endfacet
  facet normal -0 1 -0
    outer loop
      vertex 0.10000000149011612 0.10000000149011612 0
      vertex 0 0.10000000149011612 0
      vertex 0 0.10000000149011612 0.10000000149011612
    endloop
  endfacet
  facet normal 0 1 0
    outer loop
      vertex 0.10000000149011612 0.10000000149011612 0
      vertex 0 0.10000000149011612 0.10000000149011612
      vertex 0.10000000149011612 0.10000000149011612 0.10000000149011612
    endloop
  endfacet
  facet normal -1 -0 -0
    outer loop
      vertex 0 0.10000000149011612 0
      vertex 0 0 0
      vertex 0 0 0.10000000149011612
    endloop
  endfacet
  facet normal -1 -0 -0
    outer loop
      vertex 0 0.10000000149011612 0
      vertex 0 0 0.10000000149011612
      vertex 0 0.10000000149011612 0.10000000149011612
    endloop
  endfacet
  facet normal -0 -0 -1
    outer loop
      vertex 0.10000000149011612 0 0
      vertex 0 0 0
      vertex 0 0.10000000149011612 0
    endloop
  endfacet
  facet normal 0 0 -1
    outer loop
      vertex 0 0.10000000149011612 0
      vertex 0.10000000149011612 0.10000000149011612 0
      vertex 0.10000000149011612 0 0
    endloop
  endfacet
  facet normal 0 -0 1
    outer loop
      vertex 0.10000000149011612 0 0.10000000149011612
      vertex 0 0.10000000149011612 0.10000000149011612
      vertex 0 0 0.10000000149011612
    endloop
  endfacet
  facet normal 0 0 1
    outer loop
      vertex 0 0.10000000149011612 0.10000000149011612
      vertex 0.10000000149011612 0 0.10000000149011612
      vertex 0.10000000149011612 0.10000000149011612 0.10000000149011612
    endloop
  endfacet
endsolid OBJECT
